<svg width="16" height="15" viewBox="0 0 16 15" fill="none" xmlns="http://www.w3.org/2000/svg">
<path d="M2 0.25L2.75 0.25L2.75 10L2 10C1.60217 10 1.22064 9.84196 0.939339 9.56066C0.658035 9.27936 0.5 8.89782 0.499999 8.5L0.499999 1.75C0.499999 1.35218 0.658034 0.970645 0.939339 0.689341C1.22064 0.408035 1.60217 0.25 2 0.25ZM14 10L8.75 10L9.5915 12.526C9.66659 12.7514 9.68704 12.9915 9.65118 13.2264C9.61532 13.4613 9.52417 13.6843 9.38523 13.8771C9.2463 14.0698 9.06356 14.2268 8.85206 14.3351C8.64056 14.4434 8.40636 14.4999 8.16875 14.5L8 14.5L4.25 10.4215L4.25 0.25L12.5 0.249999L15.434 6.697L15.5 7L15.5 8.5C15.5 8.89782 15.342 9.27935 15.0607 9.56066C14.7794 9.84196 14.3978 10 14 10Z" fill="#C7C7C7"/>
</svg>
