<svg width="16" height="15" viewBox="0 0 16 15" fill="none" xmlns="http://www.w3.org/2000/svg">
<path d="M2 14.75H2.75V5H2C1.60218 5 1.22064 5.15804 0.93934 5.43934C0.658035 5.72064 0.5 6.10218 0.5 6.5V13.25C0.5 13.6478 0.658035 14.0294 0.93934 14.3107C1.22064 14.592 1.60218 14.75 2 14.75ZM14 5H8.75L9.5915 2.474C9.66659 2.24856 9.68704 2.00851 9.65118 1.77362C9.61532 1.53872 9.52417 1.31571 9.38523 1.12295C9.2463 0.930182 9.06356 0.773182 8.85206 0.664877C8.64056 0.556572 8.40636 0.500062 8.16875 0.5H8L4.25 4.5785V14.75H12.5L15.434 8.303L15.5 8V6.5C15.5 6.10218 15.342 5.72064 15.0607 5.43934C14.7794 5.15804 14.3978 5 14 5Z" fill="#C7C7C7"/>
</svg>
